<svg width="895" height="164" viewBox="0 0 895 164" fill="none" xmlns="http://www.w3.org/2000/svg">
<g clip-path="url(#clip0_411_4)">
<path d="M39.36 34.03V50.635C39.36 55.965 40.795 57.81 47.15 61.5C48.585 62.32 60.885 69.085 67.855 74.21C79.745 82.82 80.565 88.765 80.565 105.575V131.815C80.565 161.745 74.005 166.05 43.255 166.05C14.145 166.05 6.97 162.155 6.97 131.815V99.63H39.36V131.815C39.36 135.3 39.77 136.325 43.255 136.325C46.74 136.325 47.15 135.3 47.15 131.815V102.705C47.15 98.605 45.92 96.965 41.205 94.3C38.95 93.07 22.96 84.46 16.195 78.925C7.175 71.75 6.15 65.19 6.15 50.02V34.03C6.15 4.09999 12.505 -2.44379e-06 42.845 -2.44379e-06C72.98 -2.44379e-06 79.745 4.09999 79.745 34.03V54.53H47.15V34.03C47.15 30.545 46.74 29.52 43.255 29.52C39.77 29.52 39.36 30.545 39.36 34.03ZM128.304 2.05V164H95.0944V2.05H128.304ZM176.704 34.03V131.815C176.704 135.505 177.114 136.325 180.804 136.325C182.649 136.325 184.494 136.12 185.109 135.915V69.905H216.474V164C212.169 164.82 199.254 166.05 183.264 166.05C149.849 166.05 143.494 160.72 143.494 131.815V34.03C143.494 4.30499 149.849 -2.44379e-06 180.599 -2.44379e-06C209.709 -2.44379e-06 216.474 3.895 216.474 34.03V48.79H184.494V34.03C184.494 30.545 184.084 29.52 180.599 29.52C177.114 29.52 176.704 30.545 176.704 34.03ZM309.718 2.05V164H275.278L260.108 85.895H259.288V164H231.818V2.05H267.488L281.223 84.05H282.043V2.05H309.718Z" fill="#091242"/>
<path d="M413.591 135.505V164H362.546V2.05H413.386V29.315H395.756V41.205H412.566V67.445H395.756V135.505H413.591ZM466.197 164L458.817 94.71L451.437 164H418.432L432.782 78.105L419.662 2.05H453.692L461.072 58.015L466.607 2.05H497.562L485.262 78.105L500.637 164H466.197ZM546.994 2.05C577.744 2.05 584.304 6.14999 584.304 35.055V69.7C584.304 98.605 577.744 102.705 546.994 102.705H543.099V164H509.889V2.05H546.994ZM543.099 30.545V75.85H546.994C550.479 75.85 550.889 74.825 550.889 71.34V35.055C550.889 31.57 550.479 30.545 546.994 30.545H543.099ZM647.419 135.505V164H596.374V2.05H647.214V29.315H629.584V41.205H646.394V67.445H629.584V135.505H647.419ZM692.645 87.74V164H659.435V2.05H696.54C727.29 2.05 733.85 6.14999 733.85 35.055V51.865C733.85 68.88 725.24 72.98 719.705 74.005V74.825C727.7 76.875 733.85 82 733.85 102.705V164H700.435V92.25C700.435 88.765 700.025 87.74 696.54 87.74H692.645ZM692.645 30.545V61.705H696.54C700.025 61.705 700.435 60.68 700.435 57.195V35.055C700.435 31.57 700.025 30.545 696.54 30.545H692.645ZM806.146 2.05V29.52H790.361V164H756.946V29.52H741.161V2.05H806.146ZM846.347 34.03V50.635C846.347 55.965 847.782 57.81 854.137 61.5C855.572 62.32 867.872 69.085 874.842 74.21C886.732 82.82 887.552 88.765 887.552 105.575V131.815C887.552 161.745 880.992 166.05 850.242 166.05C821.132 166.05 813.957 162.155 813.957 131.815V99.63H846.347V131.815C846.347 135.3 846.757 136.325 850.242 136.325C853.727 136.325 854.137 135.3 854.137 131.815V102.705C854.137 98.605 852.907 96.965 848.192 94.3C845.937 93.07 829.947 84.46 823.182 78.925C814.162 71.75 813.137 65.19 813.137 50.02V34.03C813.137 4.09999 819.492 -2.44379e-06 849.832 -2.44379e-06C879.967 -2.44379e-06 886.732 4.09999 886.732 34.03V54.53H854.137V34.03C854.137 30.545 853.727 29.52 850.242 29.52C846.757 29.52 846.347 30.545 846.347 34.03Z" fill="#FFB92D"/>
</g>
<defs>
<clipPath id="clip0_411_4">
<rect width="895" height="164" fill="white"/>
</clipPath>
</defs>
</svg>
