<svg width="895" height="228" viewBox="0 0 895 228" fill="none" xmlns="http://www.w3.org/2000/svg">
<g clip-path="url(#clip0_411_4)">
<path d="M39.36 72.03V88.635C39.36 93.965 40.795 95.81 47.15 99.5C48.585 100.32 60.885 107.085 67.855 112.21C79.745 120.82 80.565 126.765 80.565 143.575V169.815C80.565 199.745 74.005 204.05 43.255 204.05C14.145 204.05 6.97 200.155 6.97 169.815V137.63H39.36V169.815C39.36 173.3 39.77 174.325 43.255 174.325C46.74 174.325 47.15 173.3 47.15 169.815V140.705C47.15 136.605 45.92 134.965 41.205 132.3C38.95 131.07 22.96 122.46 16.195 116.925C7.175 109.75 6.15 103.19 6.15 88.02V72.03C6.15 42.1 12.505 38 42.845 38C72.98 38 79.745 42.1 79.745 72.03V92.53H47.15V72.03C47.15 68.545 46.74 67.52 43.255 67.52C39.77 67.52 39.36 68.545 39.36 72.03ZM128.304 40.05V202H95.0944V40.05H128.304ZM176.704 72.03V169.815C176.704 173.505 177.114 174.325 180.804 174.325C182.649 174.325 184.494 174.12 185.109 173.915V107.905H216.474V202C212.169 202.82 199.254 204.05 183.264 204.05C149.849 204.05 143.494 198.72 143.494 169.815V72.03C143.494 42.305 149.849 38 180.599 38C209.709 38 216.474 41.895 216.474 72.03V86.79H184.494V72.03C184.494 68.545 184.084 67.52 180.599 67.52C177.114 67.52 176.704 68.545 176.704 72.03ZM309.718 40.05V202H275.278L260.108 123.895H259.288V202H231.818V40.05H267.488L281.223 122.05H282.043V40.05H309.718Z" fill="#091242"/>
<path d="M413.591 173.505V202H362.546V40.05H413.386V67.315H395.756V79.205H412.566V105.445H395.756V173.505H413.591ZM466.197 202L458.817 132.71L451.437 202H418.432L432.782 116.105L419.662 40.05H453.692L461.072 96.015L466.607 40.05H497.562L485.262 116.105L500.637 202H466.197ZM546.994 40.05C577.744 40.05 584.304 44.15 584.304 73.055V107.7C584.304 136.605 577.744 140.705 546.994 140.705H543.099V202H509.889V40.05H546.994ZM543.099 68.545V113.85H546.994C550.479 113.85 550.889 112.825 550.889 109.34V73.055C550.889 69.57 550.479 68.545 546.994 68.545H543.099ZM647.419 173.505V202H596.374V40.05H647.214V67.315H629.584V79.205H646.394V105.445H629.584V173.505H647.419ZM692.645 125.74V202H659.435V40.05H696.54C727.29 40.05 733.85 44.15 733.85 73.055V89.865C733.85 106.88 725.24 110.98 719.705 112.005V112.825C727.7 114.875 733.85 120 733.85 140.705V202H700.435V130.25C700.435 126.765 700.025 125.74 696.54 125.74H692.645ZM692.645 68.545V99.705H696.54C700.025 99.705 700.435 98.68 700.435 95.195V73.055C700.435 69.57 700.025 68.545 696.54 68.545H692.645ZM806.146 40.05V67.52H790.361V202H756.946V67.52H741.161V40.05H806.146ZM846.347 72.03V88.635C846.347 93.965 847.782 95.81 854.137 99.5C855.572 100.32 867.872 107.085 874.842 112.21C886.732 120.82 887.552 126.765 887.552 143.575V169.815C887.552 199.745 880.992 204.05 850.242 204.05C821.132 204.05 813.957 200.155 813.957 169.815V137.63H846.347V169.815C846.347 173.3 846.757 174.325 850.242 174.325C853.727 174.325 854.137 173.3 854.137 169.815V140.705C854.137 136.605 852.907 134.965 848.192 132.3C845.937 131.07 829.947 122.46 823.182 116.925C814.162 109.75 813.137 103.19 813.137 88.02V72.03C813.137 42.1 819.492 38 849.832 38C879.967 38 886.732 42.1 886.732 72.03V92.53H854.137V72.03C854.137 68.545 853.727 67.52 850.242 67.52C846.757 67.52 846.347 68.545 846.347 72.03Z" fill="#FFB92D"/>
</g>
<defs>
<clipPath id="clip0_411_4">
<rect width="895" height="228" fill="white"/>
</clipPath>
</defs>
</svg>
